<svg id="visual" viewBox="0 0 1500 788" width="1500" height="788" xmlns="http://www.w3.org/2000/svg" xmlns:xlink="http://www.w3.org/1999/xlink" version="1.1"><rect x="0" y="0" width="1500" height="788" fill="#F8F0E3"></rect><path d="M0 536L35.7 554.2C71.3 572.3 142.7 608.7 214.2 616.3C285.7 624 357.3 603 428.8 587.3C500.3 571.7 571.7 561.3 643 541.5C714.3 521.7 785.7 492.3 857 502.8C928.3 513.3 999.7 563.7 1071.2 567.8C1142.7 572 1214.3 530 1285.8 503.5C1357.3 477 1428.7 466 1464.3 460.5L1500 455L1500 789L1464.3 789C1428.7 789 1357.3 789 1285.8 789C1214.3 789 1142.7 789 1071.2 789C999.7 789 928.3 789 857 789C785.7 789 714.3 789 643 789C571.7 789 500.3 789 428.8 789C357.3 789 285.7 789 214.2 789C142.7 789 71.3 789 35.7 789L0 789Z" fill="#1B4332" stroke-linecap="round" stroke-linejoin="miter"></path></svg>