<svg id="visual" viewBox="0 0 1500 788" width="1500" height="788" xmlns="http://www.w3.org/2000/svg" xmlns:xlink="http://www.w3.org/1999/xlink" version="1.1"><rect x="0" y="0" width="1500" height="788" fill="#F8F0E3"></rect><path d="M0 155L35.7 151.5C71.3 148 142.7 141 214.2 130.3C285.7 119.7 357.3 105.3 428.8 104.5C500.3 103.7 571.7 116.3 643 114C714.3 111.7 785.7 94.3 857 94.3C928.3 94.3 999.7 111.7 1071.2 119.7C1142.7 127.7 1214.3 126.3 1285.8 131.5C1357.3 136.7 1428.7 148.3 1464.3 154.2L1500 160L1500 0L1464.3 0C1428.7 0 1357.3 0 1285.8 0C1214.3 0 1142.7 0 1071.2 0C999.7 0 928.3 0 857 0C785.7 0 714.3 0 643 0C571.7 0 500.3 0 428.8 0C357.3 0 285.7 0 214.2 0C142.7 0 71.3 0 35.7 0L0 0Z" fill="#1B4332" stroke-linecap="round" stroke-linejoin="miter"></path></svg>