<svg id="visual" viewBox="0 0 1500 788" width="1500" height="788" xmlns="http://www.w3.org/2000/svg" xmlns:xlink="http://www.w3.org/1999/xlink" version="1.1"><rect x="0" y="0" width="1500" height="788" fill="#1B4332"></rect><path d="M0 74L27.8 74.5C55.7 75 111.3 76 166.8 84.3C222.3 92.7 277.7 108.3 333.2 113.3C388.7 118.3 444.3 112.7 500 115C555.7 117.3 611.3 127.7 666.8 145.7C722.3 163.7 777.7 189.3 833.2 189.7C888.7 190 944.3 165 1000 142.2C1055.7 119.3 1111.3 98.7 1166.8 104.5C1222.3 110.3 1277.7 142.7 1333.2 165C1388.7 187.3 1444.3 199.7 1472.2 205.8L1500 212L1500 0L1472.2 0C1444.3 0 1388.7 0 1333.2 0C1277.7 0 1222.3 0 1166.8 0C1111.3 0 1055.7 0 1000 0C944.3 0 888.7 0 833.2 0C777.7 0 722.3 0 666.8 0C611.3 0 555.7 0 500 0C444.3 0 388.7 0 333.2 0C277.7 0 222.3 0 166.8 0C111.3 0 55.7 0 27.8 0L0 0Z" fill="#F8F0E3" stroke-linecap="round" stroke-linejoin="miter"></path></svg>