<svg id="visual" viewBox="0 0 1500 788" width="1500" height="788" xmlns="http://www.w3.org/2000/svg" xmlns:xlink="http://www.w3.org/1999/xlink" version="1.1"><rect x="0" y="0" width="1500" height="788" fill="#1B4332"></rect><path d="M0 695L27.8 689.3C55.7 683.7 111.3 672.3 166.8 666.7C222.3 661 277.7 661 333.2 643C388.7 625 444.3 589 500 586.5C555.7 584 611.3 615 666.8 614.3C722.3 613.7 777.7 581.3 833.2 578C888.7 574.7 944.3 600.3 1000 608.8C1055.7 617.3 1111.3 608.7 1166.8 609.5C1222.3 610.3 1277.7 620.7 1333.2 635.3C1388.7 650 1444.3 669 1472.2 678.5L1500 688L1500 789L1472.2 789C1444.3 789 1388.7 789 1333.2 789C1277.7 789 1222.3 789 1166.8 789C1111.3 789 1055.7 789 1000 789C944.3 789 888.7 789 833.2 789C777.7 789 722.3 789 666.8 789C611.3 789 555.7 789 500 789C444.3 789 388.7 789 333.2 789C277.7 789 222.3 789 166.8 789C111.3 789 55.7 789 27.8 789L0 789Z" fill="#F8F0E3" stroke-linecap="round" stroke-linejoin="miter"></path></svg>