<svg id="visual" viewBox="0 0 1500 788" width="1500" height="788" xmlns="http://www.w3.org/2000/svg" xmlns:xlink="http://www.w3.org/1999/xlink" version="1.1"><rect x="0" y="0" width="1500" height="788" fill="#F8F0E3"></rect><path d="M0 91L27.8 96.7C55.7 102.3 111.3 113.7 166.8 119.3C222.3 125 277.7 125 333.2 143C388.7 161 444.3 197 500 199.5C555.7 202 611.3 171 666.8 171.7C722.3 172.3 777.7 204.7 833.2 208C888.7 211.3 944.3 185.7 1000 177.2C1055.7 168.7 1111.3 177.3 1166.8 176.5C1222.3 175.7 1277.7 165.3 1333.2 150.7C1388.7 136 1444.3 117 1472.2 107.5L1500 98L1500 0L1472.2 0C1444.3 0 1388.7 0 1333.2 0C1277.7 0 1222.3 0 1166.8 0C1111.3 0 1055.7 0 1000 0C944.3 0 888.7 0 833.2 0C777.7 0 722.3 0 666.8 0C611.3 0 555.7 0 500 0C444.3 0 388.7 0 333.2 0C277.7 0 222.3 0 166.8 0C111.3 0 55.7 0 27.8 0L0 0Z" fill="#1B4332" stroke-linecap="round" stroke-linejoin="miter"></path></svg>